<mxfile host="app.diagrams.net" agent="Mozilla/5.0 (Macintosh; Intel Mac OS X 10_15_7) AppleWebKit/537.36 (KHTML, like Gecko) Chrome/131.0.0.0 Safari/537.36" version="26.0.5">
  <diagram name="ページ1" id="Ap2iEM6SN3KxYLHmplYN">
    <mxGraphModel dx="2272" dy="881" grid="1" gridSize="10" guides="1" tooltips="1" connect="1" arrows="1" fold="1" page="1" pageScale="1" pageWidth="827" pageHeight="1169" math="0" shadow="0">
      <root>
        <mxCell id="0" />
        <mxCell id="1" parent="0" />
        <mxCell id="17p_4jpaIdI8gEVZot0U-2" value="" style="rounded=1;whiteSpace=wrap;html=1;" vertex="1" parent="1">
          <mxGeometry x="250" y="337.76" width="330" height="160" as="geometry" />
        </mxCell>
        <mxCell id="17p_4jpaIdI8gEVZot0U-63" style="edgeStyle=orthogonalEdgeStyle;rounded=0;orthogonalLoop=1;jettySize=auto;html=1;entryX=0.998;entryY=0.505;entryDx=0;entryDy=0;entryPerimeter=0;" edge="1" parent="1" source="17p_4jpaIdI8gEVZot0U-1" target="17p_4jpaIdI8gEVZot0U-66">
          <mxGeometry relative="1" as="geometry">
            <mxPoint x="260" y="417.76000000000005" as="targetPoint" />
          </mxGeometry>
        </mxCell>
        <mxCell id="17p_4jpaIdI8gEVZot0U-1" value="" style="aspect=fixed;sketch=0;html=1;dashed=0;whitespace=wrap;verticalLabelPosition=bottom;verticalAlign=top;fillColor=#2875E2;strokeColor=#ffffff;points=[[0.005,0.63,0],[0.1,0.2,0],[0.9,0.2,0],[0.5,0,0],[0.995,0.63,0],[0.72,0.99,0],[0.5,1,0],[0.28,0.99,0]];shape=mxgraph.kubernetes.icon2;prIcon=control_plane" vertex="1" parent="1">
          <mxGeometry x="445" y="393.76000000000005" width="50" height="48" as="geometry" />
        </mxCell>
        <mxCell id="17p_4jpaIdI8gEVZot0U-3" value="Control plane" style="text;html=1;align=center;verticalAlign=middle;resizable=0;points=[];autosize=1;strokeColor=none;fillColor=none;" vertex="1" parent="1">
          <mxGeometry x="355" y="497.76000000000005" width="90" height="30" as="geometry" />
        </mxCell>
        <mxCell id="17p_4jpaIdI8gEVZot0U-4" value="" style="aspect=fixed;sketch=0;html=1;dashed=0;whitespace=wrap;verticalLabelPosition=bottom;verticalAlign=top;fillColor=#2875E2;strokeColor=#ffffff;points=[[0.005,0.63,0],[0.1,0.2,0],[0.9,0.2,0],[0.5,0,0],[0.995,0.63,0],[0.72,0.99,0],[0.5,1,0],[0.28,0.99,0]];shape=mxgraph.kubernetes.icon2;kubernetesLabel=1;prIcon=control_plane" vertex="1" parent="1">
          <mxGeometry x="217.07999999999998" y="309.9200000000001" width="72.92" height="70" as="geometry" />
        </mxCell>
        <mxCell id="17p_4jpaIdI8gEVZot0U-5" value="kube-apiserver" style="text;html=1;align=center;verticalAlign=middle;resizable=0;points=[];autosize=1;strokeColor=none;fillColor=none;" vertex="1" parent="1">
          <mxGeometry x="420" y="441.76000000000005" width="100" height="30" as="geometry" />
        </mxCell>
        <mxCell id="17p_4jpaIdI8gEVZot0U-15" value="" style="group" vertex="1" connectable="0" parent="1">
          <mxGeometry x="840" y="47.84313725490199" width="370" height="740" as="geometry" />
        </mxCell>
        <mxCell id="17p_4jpaIdI8gEVZot0U-13" value="" style="group" vertex="1" connectable="0" parent="17p_4jpaIdI8gEVZot0U-15">
          <mxGeometry width="370" height="740" as="geometry" />
        </mxCell>
        <mxCell id="17p_4jpaIdI8gEVZot0U-10" value="" style="rounded=1;whiteSpace=wrap;html=1;" vertex="1" parent="17p_4jpaIdI8gEVZot0U-13">
          <mxGeometry x="-170" y="4" width="480" height="736" as="geometry" />
        </mxCell>
        <mxCell id="17p_4jpaIdI8gEVZot0U-7" value="" style="rounded=1;whiteSpace=wrap;html=1;" vertex="1" parent="17p_4jpaIdI8gEVZot0U-13">
          <mxGeometry x="-180" width="480" height="730" as="geometry" />
        </mxCell>
        <mxCell id="17p_4jpaIdI8gEVZot0U-25" value="recording pods" style="text;html=1;align=center;verticalAlign=middle;resizable=0;points=[];autosize=1;strokeColor=none;fillColor=none;" vertex="1" parent="17p_4jpaIdI8gEVZot0U-13">
          <mxGeometry x="90" y="232.1601960784314" width="100" height="30" as="geometry" />
        </mxCell>
        <mxCell id="17p_4jpaIdI8gEVZot0U-49" value="" style="rounded=1;whiteSpace=wrap;html=1;" vertex="1" parent="17p_4jpaIdI8gEVZot0U-13">
          <mxGeometry x="40" y="490" width="210" height="178.23" as="geometry" />
        </mxCell>
        <mxCell id="17p_4jpaIdI8gEVZot0U-32" value="" style="aspect=fixed;sketch=0;html=1;dashed=0;whitespace=wrap;verticalLabelPosition=bottom;verticalAlign=top;fillColor=#2875E2;strokeColor=#ffffff;points=[[0.005,0.63,0],[0.1,0.2,0],[0.9,0.2,0],[0.5,0,0],[0.995,0.63,0],[0.72,0.99,0],[0.5,1,0],[0.28,0.99,0]];shape=mxgraph.kubernetes.icon2;kubernetesLabel=1;prIcon=pod" vertex="1" parent="17p_4jpaIdI8gEVZot0U-13">
          <mxGeometry y="462.15458110516926" width="72.5" height="69.6" as="geometry" />
        </mxCell>
        <mxCell id="17p_4jpaIdI8gEVZot0U-59" style="edgeStyle=orthogonalEdgeStyle;rounded=0;orthogonalLoop=1;jettySize=auto;html=1;entryX=0;entryY=0.5;entryDx=0;entryDy=0;" edge="1" parent="17p_4jpaIdI8gEVZot0U-13" source="17p_4jpaIdI8gEVZot0U-11" target="17p_4jpaIdI8gEVZot0U-17">
          <mxGeometry relative="1" as="geometry" />
        </mxCell>
        <mxCell id="17p_4jpaIdI8gEVZot0U-108" style="edgeStyle=orthogonalEdgeStyle;rounded=0;orthogonalLoop=1;jettySize=auto;html=1;entryX=0;entryY=0.5;entryDx=0;entryDy=0;" edge="1" parent="17p_4jpaIdI8gEVZot0U-13" source="17p_4jpaIdI8gEVZot0U-11" target="17p_4jpaIdI8gEVZot0U-49">
          <mxGeometry relative="1" as="geometry" />
        </mxCell>
        <mxCell id="17p_4jpaIdI8gEVZot0U-11" value="" style="aspect=fixed;sketch=0;html=1;dashed=0;whitespace=wrap;verticalLabelPosition=bottom;verticalAlign=top;fillColor=#2875E2;strokeColor=#ffffff;points=[[0.005,0.63,0],[0.1,0.2,0],[0.9,0.2,0],[0.5,0,0],[0.995,0.63,0],[0.72,0.99,0],[0.5,1,0],[0.28,0.99,0]];shape=mxgraph.kubernetes.icon2;kubernetesLabel=1;prIcon=kubelet" vertex="1" parent="17p_4jpaIdI8gEVZot0U-13">
          <mxGeometry x="-130" y="335.19713012477723" width="72.5" height="69.6" as="geometry" />
        </mxCell>
        <mxCell id="17p_4jpaIdI8gEVZot0U-53" value="Management pod" style="text;html=1;align=center;verticalAlign=middle;resizable=0;points=[];autosize=1;strokeColor=none;fillColor=none;" vertex="1" parent="17p_4jpaIdI8gEVZot0U-13">
          <mxGeometry x="77.75" y="666.9268627450981" width="120" height="30" as="geometry" />
        </mxCell>
        <mxCell id="17p_4jpaIdI8gEVZot0U-73" style="edgeStyle=orthogonalEdgeStyle;rounded=0;orthogonalLoop=1;jettySize=auto;html=1;exitX=1;exitY=0.5;exitDx=0;exitDy=0;fillColor=#dae8fc;strokeColor=#6c8ebf;strokeWidth=2;" edge="1" parent="17p_4jpaIdI8gEVZot0U-13" source="17p_4jpaIdI8gEVZot0U-56" target="17p_4jpaIdI8gEVZot0U-71">
          <mxGeometry relative="1" as="geometry" />
        </mxCell>
        <mxCell id="17p_4jpaIdI8gEVZot0U-56" value="" style="shape=image;html=1;verticalAlign=top;verticalLabelPosition=bottom;labelBackgroundColor=#ffffff;imageAspect=0;aspect=fixed;image=https://cdn0.iconfinder.com/data/icons/social-media-2104/24/social_media_social_media_logo_docker-128.png" vertex="1" parent="17p_4jpaIdI8gEVZot0U-13">
          <mxGeometry x="81" y="569.8590196078432" width="48" height="48" as="geometry" />
        </mxCell>
        <mxCell id="17p_4jpaIdI8gEVZot0U-68" value="namespace: manage" style="text;html=1;align=center;verticalAlign=middle;resizable=0;points=[];autosize=1;strokeColor=none;fillColor=none;" vertex="1" parent="17p_4jpaIdI8gEVZot0U-13">
          <mxGeometry x="68.87" y="636.926862745098" width="140" height="30" as="geometry" />
        </mxCell>
        <mxCell id="17p_4jpaIdI8gEVZot0U-70" value="frontend" style="text;html=1;align=center;verticalAlign=middle;resizable=0;points=[];autosize=1;strokeColor=none;fillColor=none;" vertex="1" parent="17p_4jpaIdI8gEVZot0U-13">
          <mxGeometry x="70" y="606.926862745098" width="70" height="30" as="geometry" />
        </mxCell>
        <mxCell id="17p_4jpaIdI8gEVZot0U-71" value="" style="shape=image;html=1;verticalAlign=top;verticalLabelPosition=bottom;labelBackgroundColor=#ffffff;imageAspect=0;aspect=fixed;image=https://cdn0.iconfinder.com/data/icons/social-media-2104/24/social_media_social_media_logo_docker-128.png" vertex="1" parent="17p_4jpaIdI8gEVZot0U-13">
          <mxGeometry x="171" y="569.8590196078432" width="48" height="48" as="geometry" />
        </mxCell>
        <mxCell id="17p_4jpaIdI8gEVZot0U-72" value="backend" style="text;html=1;align=center;verticalAlign=middle;resizable=0;points=[];autosize=1;strokeColor=none;fillColor=none;" vertex="1" parent="17p_4jpaIdI8gEVZot0U-13">
          <mxGeometry x="160" y="606.926862745098" width="70" height="30" as="geometry" />
        </mxCell>
        <mxCell id="17p_4jpaIdI8gEVZot0U-84" value="" style="group" vertex="1" connectable="0" parent="17p_4jpaIdI8gEVZot0U-13">
          <mxGeometry x="40" y="285.1" width="304.0954545454546" height="183.14" as="geometry" />
        </mxCell>
        <mxCell id="17p_4jpaIdI8gEVZot0U-86" value="" style="rounded=1;whiteSpace=wrap;html=1;" vertex="1" parent="17p_4jpaIdI8gEVZot0U-84">
          <mxGeometry width="209.0909090909091" height="153.14102598419043" as="geometry" />
        </mxCell>
        <mxCell id="17p_4jpaIdI8gEVZot0U-88" value="namespace: batch" style="text;html=1;align=center;verticalAlign=middle;resizable=0;points=[];autosize=1;strokeColor=none;fillColor=none;" vertex="1" parent="17p_4jpaIdI8gEVZot0U-84">
          <mxGeometry x="48.226818181818174" y="119.99844514561704" width="120" height="30" as="geometry" />
        </mxCell>
        <mxCell id="17p_4jpaIdI8gEVZot0U-82" value="" style="aspect=fixed;sketch=0;html=1;dashed=0;whitespace=wrap;verticalLabelPosition=bottom;verticalAlign=top;fillColor=#2875E2;strokeColor=#ffffff;points=[[0.005,0.63,0],[0.1,0.2,0],[0.9,0.2,0],[0.5,0,0],[0.995,0.63,0],[0.72,0.99,0],[0.5,1,0],[0.28,0.99,0]];shape=mxgraph.kubernetes.icon2;kubernetesLabel=1;prIcon=cronjob" vertex="1" parent="17p_4jpaIdI8gEVZot0U-84">
          <mxGeometry x="73.2759090909091" y="47.85117833041218" width="59.83147334396156" height="57.43141424274967" as="geometry" />
        </mxCell>
        <mxCell id="17p_4jpaIdI8gEVZot0U-97" value="batch pod" style="text;html=1;align=center;verticalAlign=middle;resizable=0;points=[];autosize=1;strokeColor=none;fillColor=none;" vertex="1" parent="17p_4jpaIdI8gEVZot0U-84">
          <mxGeometry x="62.72727272727273" y="153.1392612348513" width="80" height="30" as="geometry" />
        </mxCell>
        <mxCell id="17p_4jpaIdI8gEVZot0U-104" value="&lt;font style=&quot;font-size: 9px;&quot;&gt;SELECT name&amp;nbsp;&lt;/font&gt;&lt;div&gt;&lt;font style=&quot;background-color: transparent; color: light-dark(rgb(0, 0, 0), rgb(255, 255, 255)); font-size: 9px;&quot;&gt;FROM twitcasting.&lt;/font&gt;&lt;font style=&quot;background-color: transparent; color: light-dark(rgb(0, 0, 0), rgb(255, 255, 255));&quot; size=&quot;1&quot;&gt;speakers&amp;nbsp;&lt;/font&gt;&lt;/div&gt;&lt;div&gt;&lt;font style=&quot;background-color: transparent; color: light-dark(rgb(0, 0, 0), rgb(255, 255, 255));&quot; size=&quot;1&quot;&gt;WHERE recording=false&lt;/font&gt;&lt;/div&gt;" style="text;html=1;align=left;verticalAlign=middle;resizable=0;points=[];autosize=1;strokeColor=none;fillColor=none;" vertex="1" parent="17p_4jpaIdI8gEVZot0U-84">
          <mxGeometry x="133.10545454545453" y="27.05700627736236" width="140" height="60" as="geometry" />
        </mxCell>
        <mxCell id="17p_4jpaIdI8gEVZot0U-90" value="" style="aspect=fixed;sketch=0;html=1;dashed=0;whitespace=wrap;verticalLabelPosition=bottom;verticalAlign=top;fillColor=#2875E2;strokeColor=#ffffff;points=[[0.005,0.63,0],[0.1,0.2,0],[0.9,0.2,0],[0.5,0,0],[0.995,0.63,0],[0.72,0.99,0],[0.5,1,0],[0.28,0.99,0]];shape=mxgraph.kubernetes.icon2;kubernetesLabel=1;prIcon=pod" vertex="1" parent="17p_4jpaIdI8gEVZot0U-13">
          <mxGeometry y="255.0945811051693" width="72.5" height="69.6" as="geometry" />
        </mxCell>
        <mxCell id="17p_4jpaIdI8gEVZot0U-93" style="edgeStyle=orthogonalEdgeStyle;rounded=0;orthogonalLoop=1;jettySize=auto;html=1;entryX=0.004;entryY=0.554;entryDx=0;entryDy=0;entryPerimeter=0;" edge="1" parent="17p_4jpaIdI8gEVZot0U-13" source="17p_4jpaIdI8gEVZot0U-11" target="17p_4jpaIdI8gEVZot0U-86">
          <mxGeometry relative="1" as="geometry" />
        </mxCell>
        <mxCell id="17p_4jpaIdI8gEVZot0U-23" value="" style="rounded=1;whiteSpace=wrap;html=1;" vertex="1" parent="17p_4jpaIdI8gEVZot0U-13">
          <mxGeometry x="52.25" y="86.08137254901963" width="197.75" height="146.08" as="geometry" />
        </mxCell>
        <mxCell id="17p_4jpaIdI8gEVZot0U-17" value="" style="rounded=1;whiteSpace=wrap;html=1;" vertex="1" parent="17p_4jpaIdI8gEVZot0U-13">
          <mxGeometry x="40" y="72.16137254901963" width="200" height="153.13725490196077" as="geometry" />
        </mxCell>
        <mxCell id="17p_4jpaIdI8gEVZot0U-19" value="" style="shape=image;html=1;verticalAlign=top;verticalLabelPosition=bottom;labelBackgroundColor=#ffffff;imageAspect=0;aspect=fixed;image=https://cdn0.iconfinder.com/data/icons/social-media-2104/24/social_media_social_media_logo_docker-128.png" vertex="1" parent="17p_4jpaIdI8gEVZot0U-13">
          <mxGeometry x="116" y="113.78901960784316" width="48" height="48" as="geometry" />
        </mxCell>
        <mxCell id="17p_4jpaIdI8gEVZot0U-31" value="namespace: rec-api" style="text;html=1;align=center;verticalAlign=middle;resizable=0;points=[];autosize=1;strokeColor=none;fillColor=none;" vertex="1" parent="17p_4jpaIdI8gEVZot0U-13">
          <mxGeometry x="81.13" y="192.15686274509807" width="130" height="30" as="geometry" />
        </mxCell>
        <mxCell id="17p_4jpaIdI8gEVZot0U-69" value="&lt;span class=&quot;AppHeader-context-item-label&quot; style=&quot;box-sizing: border-box; display: inline-block; overflow: hidden; text-overflow: ellipsis; text-wrap-mode: nowrap;&quot;&gt;&lt;font style=&quot;color: rgb(0, 0, 0); font-size: 11px;&quot;&gt;rec-twitcasting&lt;/font&gt;&lt;/span&gt;" style="text;html=1;align=center;verticalAlign=middle;resizable=0;points=[];autosize=1;strokeColor=none;fillColor=none;" vertex="1" parent="17p_4jpaIdI8gEVZot0U-13">
          <mxGeometry x="95" y="153.666862745098" width="90" height="30" as="geometry" />
        </mxCell>
        <mxCell id="17p_4jpaIdI8gEVZot0U-14" value="" style="aspect=fixed;sketch=0;html=1;dashed=0;whitespace=wrap;verticalLabelPosition=bottom;verticalAlign=top;fillColor=#2875E2;strokeColor=#ffffff;points=[[0.005,0.63,0],[0.1,0.2,0],[0.9,0.2,0],[0.5,0,0],[0.995,0.63,0],[0.72,0.99,0],[0.5,1,0],[0.28,0.99,0]];shape=mxgraph.kubernetes.icon2;kubernetesLabel=1;prIcon=pod" vertex="1" parent="17p_4jpaIdI8gEVZot0U-13">
          <mxGeometry y="42.154581105169314" width="72.5" height="69.6" as="geometry" />
        </mxCell>
        <mxCell id="17p_4jpaIdI8gEVZot0U-92" style="edgeStyle=orthogonalEdgeStyle;rounded=0;orthogonalLoop=1;jettySize=auto;html=1;entryX=0;entryY=0.75;entryDx=0;entryDy=0;dashed=1;" edge="1" parent="17p_4jpaIdI8gEVZot0U-13" source="17p_4jpaIdI8gEVZot0U-82" target="17p_4jpaIdI8gEVZot0U-17">
          <mxGeometry relative="1" as="geometry">
            <Array as="points">
              <mxPoint x="-30" y="352" />
              <mxPoint x="-30" y="187" />
            </Array>
          </mxGeometry>
        </mxCell>
        <mxCell id="17p_4jpaIdI8gEVZot0U-61" value="&lt;font style=&quot;font-size: 10px;&quot;&gt;listFile&lt;/font&gt;" style="text;html=1;align=center;verticalAlign=middle;resizable=0;points=[];autosize=1;strokeColor=none;fillColor=none;" vertex="1" parent="17p_4jpaIdI8gEVZot0U-13">
          <mxGeometry x="320" y="564.116862745098" width="50" height="30" as="geometry" />
        </mxCell>
        <mxCell id="17p_4jpaIdI8gEVZot0U-29" value="" style="group" vertex="1" connectable="0" parent="1">
          <mxGeometry x="1390" y="360" width="105" height="130.5" as="geometry" />
        </mxCell>
        <mxCell id="17p_4jpaIdI8gEVZot0U-26" value="" style="fontColor=#0066CC;verticalAlign=top;verticalLabelPosition=bottom;labelPosition=center;align=center;html=1;outlineConnect=0;fillColor=#CCCCCC;strokeColor=#6881B3;gradientColor=none;gradientDirection=north;strokeWidth=2;shape=mxgraph.networks.server_storage;" vertex="1" parent="17p_4jpaIdI8gEVZot0U-29">
          <mxGeometry width="105" height="105" as="geometry" />
        </mxCell>
        <mxCell id="17p_4jpaIdI8gEVZot0U-28" value="File storage" style="text;html=1;align=center;verticalAlign=middle;resizable=0;points=[];autosize=1;strokeColor=none;fillColor=none;" vertex="1" parent="17p_4jpaIdI8gEVZot0U-29">
          <mxGeometry x="7.5" y="100.5" width="90" height="30" as="geometry" />
        </mxCell>
        <mxCell id="17p_4jpaIdI8gEVZot0U-9" value="" style="aspect=fixed;sketch=0;html=1;dashed=0;whitespace=wrap;verticalLabelPosition=bottom;verticalAlign=top;fillColor=#2875E2;strokeColor=#ffffff;points=[[0.005,0.63,0],[0.1,0.2,0],[0.9,0.2,0],[0.5,0,0],[0.995,0.63,0],[0.72,0.99,0],[0.5,1,0],[0.28,0.99,0]];shape=mxgraph.kubernetes.icon2;kubernetesLabel=1;prIcon=node" vertex="1" parent="1">
          <mxGeometry x="630" y="20" width="83.33" height="80" as="geometry" />
        </mxCell>
        <mxCell id="17p_4jpaIdI8gEVZot0U-50" style="edgeStyle=orthogonalEdgeStyle;rounded=0;orthogonalLoop=1;jettySize=auto;html=1;exitX=1;exitY=0.5;exitDx=0;exitDy=0;" edge="1" parent="1" source="17p_4jpaIdI8gEVZot0U-2" target="17p_4jpaIdI8gEVZot0U-11">
          <mxGeometry relative="1" as="geometry">
            <mxPoint x="580" y="420" as="sourcePoint" />
          </mxGeometry>
        </mxCell>
        <mxCell id="17p_4jpaIdI8gEVZot0U-27" style="edgeStyle=orthogonalEdgeStyle;rounded=0;orthogonalLoop=1;jettySize=auto;html=1;dashed=1;" edge="1" parent="1" source="17p_4jpaIdI8gEVZot0U-19" target="17p_4jpaIdI8gEVZot0U-26">
          <mxGeometry relative="1" as="geometry">
            <Array as="points" />
          </mxGeometry>
        </mxCell>
        <mxCell id="17p_4jpaIdI8gEVZot0U-8" value="Worker nodes" style="text;html=1;align=center;verticalAlign=middle;resizable=0;points=[];autosize=1;strokeColor=none;fillColor=none;" vertex="1" parent="1">
          <mxGeometry x="840" y="787.8386096256684" width="100" height="30" as="geometry" />
        </mxCell>
        <mxCell id="17p_4jpaIdI8gEVZot0U-55" style="edgeStyle=orthogonalEdgeStyle;rounded=0;orthogonalLoop=1;jettySize=auto;html=1;entryX=0.503;entryY=1.012;entryDx=0;entryDy=0;entryPerimeter=0;dashed=1;dashPattern=8 8;exitX=1;exitY=0.5;exitDx=0;exitDy=0;" edge="1" parent="1" source="17p_4jpaIdI8gEVZot0U-71" target="17p_4jpaIdI8gEVZot0U-28">
          <mxGeometry relative="1" as="geometry" />
        </mxCell>
        <mxCell id="17p_4jpaIdI8gEVZot0U-66" value="" style="aspect=fixed;sketch=0;html=1;dashed=0;whitespace=wrap;verticalLabelPosition=bottom;verticalAlign=top;fillColor=#2875E2;strokeColor=#ffffff;points=[[0.005,0.63,0],[0.1,0.2,0],[0.9,0.2,0],[0.5,0,0],[0.995,0.63,0],[0.72,0.99,0],[0.5,1,0],[0.28,0.99,0]];shape=mxgraph.kubernetes.icon2;kubernetesLabel=1;prIcon=secret" vertex="1" parent="1">
          <mxGeometry x="320" y="393.76000000000005" width="50" height="48" as="geometry" />
        </mxCell>
        <mxCell id="17p_4jpaIdI8gEVZot0U-67" value="&lt;div&gt;secrets&lt;/div&gt;" style="text;html=1;align=center;verticalAlign=middle;resizable=0;points=[];autosize=1;strokeColor=none;fillColor=none;" vertex="1" parent="1">
          <mxGeometry x="315" y="440.42" width="60" height="30" as="geometry" />
        </mxCell>
        <mxCell id="17p_4jpaIdI8gEVZot0U-79" style="edgeStyle=orthogonalEdgeStyle;rounded=0;orthogonalLoop=1;jettySize=auto;html=1;fillColor=#dae8fc;strokeColor=#6c8ebf;strokeWidth=3;" edge="1" parent="1" source="17p_4jpaIdI8gEVZot0U-78" target="17p_4jpaIdI8gEVZot0U-56">
          <mxGeometry relative="1" as="geometry" />
        </mxCell>
        <mxCell id="17p_4jpaIdI8gEVZot0U-109" style="edgeStyle=orthogonalEdgeStyle;rounded=0;orthogonalLoop=1;jettySize=auto;html=1;" edge="1" parent="1" source="17p_4jpaIdI8gEVZot0U-78" target="17p_4jpaIdI8gEVZot0U-3">
          <mxGeometry relative="1" as="geometry" />
        </mxCell>
        <mxCell id="17p_4jpaIdI8gEVZot0U-78" value="" style="shape=actor;whiteSpace=wrap;html=1;" vertex="1" parent="1">
          <mxGeometry x="464" y="611.7" width="40" height="60" as="geometry" />
        </mxCell>
        <mxCell id="17p_4jpaIdI8gEVZot0U-80" value="User" style="text;html=1;align=center;verticalAlign=middle;resizable=0;points=[];autosize=1;strokeColor=none;fillColor=none;" vertex="1" parent="1">
          <mxGeometry x="459" y="668" width="50" height="30" as="geometry" />
        </mxCell>
        <mxCell id="17p_4jpaIdI8gEVZot0U-81" style="edgeStyle=orthogonalEdgeStyle;rounded=0;orthogonalLoop=1;jettySize=auto;html=1;entryX=0.5;entryY=1;entryDx=0;entryDy=0;dashed=1;dashPattern=8 8;exitX=0.447;exitY=-0.004;exitDx=0;exitDy=0;exitPerimeter=0;" edge="1" parent="1" source="17p_4jpaIdI8gEVZot0U-71" target="17p_4jpaIdI8gEVZot0U-102">
          <mxGeometry relative="1" as="geometry">
            <Array as="points">
              <mxPoint x="1033" y="590" />
              <mxPoint x="1272" y="590" />
            </Array>
          </mxGeometry>
        </mxCell>
        <mxCell id="17p_4jpaIdI8gEVZot0U-94" value="&lt;font style=&quot;font-size: 10px;&quot;&gt;・addCastingUser&lt;/font&gt;&lt;div&gt;&lt;font style=&quot;font-size: 10px;&quot;&gt;・checkRecordingState&lt;/font&gt;&lt;/div&gt;&lt;div&gt;&lt;span style=&quot;font-size: 10px;&quot;&gt;・listFile&lt;/span&gt;&lt;/div&gt;" style="text;html=1;align=left;verticalAlign=middle;resizable=0;points=[];autosize=1;strokeColor=none;fillColor=none;rotation=0;" vertex="1" parent="1">
          <mxGeometry x="1160" y="535" width="130" height="60" as="geometry" />
        </mxCell>
        <mxCell id="17p_4jpaIdI8gEVZot0U-102" value="" style="shape=image;verticalLabelPosition=bottom;labelBackgroundColor=default;verticalAlign=top;aspect=fixed;imageAspect=0;image=https://go-tech.blog/wp-content/uploads/2024/03/image-3-1024x465.png;" vertex="1" parent="1">
          <mxGeometry x="1180" y="376.07000000000005" width="184" height="83.55" as="geometry" />
        </mxCell>
        <mxCell id="17p_4jpaIdI8gEVZot0U-103" style="edgeStyle=orthogonalEdgeStyle;rounded=0;orthogonalLoop=1;jettySize=auto;html=1;dashed=1;exitX=0.995;exitY=0.63;exitDx=0;exitDy=0;exitPerimeter=0;" edge="1" parent="1" source="17p_4jpaIdI8gEVZot0U-82" target="17p_4jpaIdI8gEVZot0U-102">
          <mxGeometry relative="1" as="geometry" />
        </mxCell>
        <mxCell id="17p_4jpaIdI8gEVZot0U-105" style="edgeStyle=orthogonalEdgeStyle;rounded=0;orthogonalLoop=1;jettySize=auto;html=1;entryX=0.5;entryY=0;entryDx=0;entryDy=0;dashed=1;dashPattern=8 8;" edge="1" parent="1" source="17p_4jpaIdI8gEVZot0U-19" target="17p_4jpaIdI8gEVZot0U-102">
          <mxGeometry relative="1" as="geometry">
            <Array as="points">
              <mxPoint x="1272" y="200" />
            </Array>
          </mxGeometry>
        </mxCell>
        <mxCell id="17p_4jpaIdI8gEVZot0U-106" value="&lt;font style=&quot;font-size: 10px;&quot;&gt;addRecordingState&lt;/font&gt;" style="text;html=1;align=center;verticalAlign=middle;resizable=0;points=[];autosize=1;strokeColor=none;fillColor=none;rotation=-90;" vertex="1" parent="1">
          <mxGeometry x="1200" y="270" width="110" height="30" as="geometry" />
        </mxCell>
        <mxCell id="17p_4jpaIdI8gEVZot0U-107" value="output file" style="text;html=1;align=center;verticalAlign=middle;resizable=0;points=[];autosize=1;strokeColor=none;fillColor=none;" vertex="1" parent="1">
          <mxGeometry x="1201" y="158" width="80" height="30" as="geometry" />
        </mxCell>
        <mxCell id="17p_4jpaIdI8gEVZot0U-110" value="deploy" style="text;html=1;align=center;verticalAlign=middle;resizable=0;points=[];autosize=1;strokeColor=none;fillColor=none;" vertex="1" parent="1">
          <mxGeometry x="404" y="611.7" width="60" height="30" as="geometry" />
        </mxCell>
        <mxCell id="17p_4jpaIdI8gEVZot0U-111" value="access&lt;div&gt;with cloudflare access&lt;/div&gt;" style="text;html=1;align=center;verticalAlign=middle;resizable=0;points=[];autosize=1;strokeColor=none;fillColor=none;" vertex="1" parent="1">
          <mxGeometry x="509" y="601.7" width="140" height="40" as="geometry" />
        </mxCell>
        <mxCell id="17p_4jpaIdI8gEVZot0U-95" value="&lt;font style=&quot;font-size: 10px;&quot;&gt;/check-live?username=user&lt;/font&gt;" style="text;html=1;align=center;verticalAlign=middle;resizable=0;points=[];autosize=1;strokeColor=none;fillColor=none;rotation=-90;" vertex="1" parent="1">
          <mxGeometry x="720.0045454545455" y="302.9388011959892" width="150" height="30" as="geometry" />
        </mxCell>
        <mxCell id="17p_4jpaIdI8gEVZot0U-113" value="&lt;font style=&quot;font-size: 10px;&quot;&gt;twitcasting API&lt;/font&gt;&lt;div&gt;&lt;font style=&quot;font-size: 10px;&quot;&gt;key/secret&lt;/font&gt;&lt;/div&gt;" style="text;html=1;align=center;verticalAlign=middle;resizable=0;points=[];autosize=1;strokeColor=none;fillColor=none;" vertex="1" parent="1">
          <mxGeometry x="369" y="375.99" width="90" height="40" as="geometry" />
        </mxCell>
      </root>
    </mxGraphModel>
  </diagram>
</mxfile>
